<svg width="18" height="18" viewBox="0 0 18 18" fill="none" xmlns="http://www.w3.org/2000/svg">
<path d="M15.1875 3.375H12.375V2.8125C12.3731 2.36552 12.1948 1.93737 11.8787 1.6213C11.5626 1.30523 11.1345 1.12685 10.6875 1.125H7.3125C6.86552 1.12685 6.43737 1.30523 6.1213 1.6213C5.80523 1.93737 5.62685 2.36552 5.625 2.8125V3.375H2.8125C2.66332 3.375 2.52024 3.43426 2.41475 3.53975C2.30926 3.64524 2.25 3.78832 2.25 3.9375C2.25 4.08668 2.30926 4.22976 2.41475 4.33525C2.52024 4.44074 2.66332 4.5 2.8125 4.5H3.375V14.625C3.375 14.9234 3.49353 15.2095 3.7045 15.4205C3.91548 15.6315 4.20163 15.75 4.5 15.75H13.5C13.7984 15.75 14.0845 15.6315 14.2955 15.4205C14.5065 15.2095 14.625 14.9234 14.625 14.625V4.5H15.1875C15.3367 4.5 15.4798 4.44074 15.5852 4.33525C15.6907 4.22976 15.75 4.08668 15.75 3.9375C15.75 3.78832 15.6907 3.64524 15.5852 3.53975C15.4798 3.43426 15.3367 3.375 15.1875 3.375ZM7.875 11.8125C7.875 11.9617 7.81574 12.1048 7.71025 12.2102C7.60476 12.3157 7.46168 12.375 7.3125 12.375C7.16332 12.375 7.02024 12.3157 6.91475 12.2102C6.80926 12.1048 6.75 11.9617 6.75 11.8125V7.3125C6.75 7.16332 6.80926 7.02024 6.91475 6.91475C7.02024 6.80926 7.16332 6.75 7.3125 6.75C7.46168 6.75 7.60476 6.80926 7.71025 6.91475C7.81574 7.02024 7.875 7.16332 7.875 7.3125V11.8125ZM11.25 11.8125C11.25 11.9617 11.1907 12.1048 11.0852 12.2102C10.9798 12.3157 10.8367 12.375 10.6875 12.375C10.5383 12.375 10.3952 12.3157 10.2898 12.2102C10.1843 12.1048 10.125 11.9617 10.125 11.8125V7.3125C10.125 7.16332 10.1843 7.02024 10.2898 6.91475C10.3952 6.80926 10.5383 6.75 10.6875 6.75C10.8367 6.75 10.9798 6.80926 11.0852 6.91475C11.1907 7.02024 11.25 7.16332 11.25 7.3125V11.8125ZM11.25 3.375H6.75V2.8125C6.75 2.66332 6.80926 2.52024 6.91475 2.41475C7.02024 2.30926 7.16332 2.25 7.3125 2.25H10.6875C10.8367 2.25 10.9798 2.30926 11.0852 2.41475C11.1907 2.52024 11.25 2.66332 11.25 2.8125V3.375Z" fill="#797979"/>
</svg>
