<svg width="15" height="14" viewBox="0 0 15 14" fill="none" xmlns="http://www.w3.org/2000/svg">
<path d="M13.9318 3.46591L10.8799 0.407128C10.6744 0.196407 10.3955 0.0730318 10.1014 0.0626701C9.95212 0.0592324 9.80369 0.0861603 9.66514 0.14182C9.52658 0.197479 9.40078 0.280709 9.29536 0.38646L7.47663 2.19831L1.02838 8.65344C0.925662 8.75538 0.84416 8.87666 0.788585 9.01028C0.733009 9.1439 0.704461 9.2872 0.70459 9.43192V12.5114C0.70459 12.8037 0.820721 13.0841 1.02744 13.2908C1.23415 13.4975 1.51452 13.6136 1.80685 13.6136H4.88631C5.1783 13.6124 5.45803 13.496 5.66478 13.2898L13.9318 5.02286C14.1362 4.81534 14.2509 4.53571 14.2509 4.24439C14.2509 3.95306 14.1362 3.67343 13.9318 3.46591ZM11.7272 5.67044L8.64778 2.59099L10.0738 1.16493L13.1533 4.24439L11.7272 5.67044Z"/>
</svg>
