<svg width="40" height="41" viewBox="0 0 40 41" fill="none" xmlns="http://www.w3.org/2000/svg">
<path d="M14.6868 9.7436C14.3132 9.02941 14.23 8.19848 14.4546 7.42439C14.6791 6.6503 15.1941 5.99292 15.8919 5.58956C16.5897 5.18619 17.4164 5.06805 18.1993 5.25981C18.9822 5.45157 19.6607 5.93839 20.0931 6.6186L24.7806 14.728" stroke="#373737" stroke-width="2.5" stroke-linecap="round" stroke-linejoin="round"/>
<path d="M10.5318 15.0255L8.03177 10.6974C7.65817 9.9832 7.57496 9.15228 7.79953 8.37819C8.0241 7.6041 8.53908 6.94671 9.2369 6.54335C9.93471 6.13999 10.7614 6.02185 11.5443 6.21361C12.3271 6.40537 13.0056 6.89219 13.438 7.57239L18.7505 16.7755" stroke="#373737" stroke-width="2.5" stroke-linecap="round" stroke-linejoin="round"/>
<path d="M24.0626 25.9781C23.6509 25.2685 23.3833 24.4846 23.2751 23.6714C23.1669 22.8581 23.2204 22.0315 23.4323 21.239C23.6442 20.4464 24.0105 19.7035 24.5101 19.0527C25.0097 18.402 25.6329 17.8563 26.3438 17.4469L24.7813 14.7281C24.3669 14.0091 24.2551 13.155 24.4705 12.3536C24.6859 11.5521 25.2108 10.8691 25.9298 10.4547C26.6488 10.0403 27.5029 9.92847 28.3043 10.1438C29.1058 10.3592 29.7888 10.8841 30.2032 11.6031L33.3282 17.025C34.9858 19.8968 35.4347 23.3095 34.5761 26.5122C33.7176 29.715 31.6219 32.4455 28.7501 34.1031C25.8783 35.7607 22.4656 36.2096 19.2629 35.3511C16.0601 34.4925 13.3296 32.3968 11.672 29.525L5.10946 18.15C4.90427 17.794 4.77121 17.4011 4.71788 16.9936C4.66454 16.5862 4.69198 16.1723 4.79862 15.7754C5.014 14.974 5.53891 14.291 6.2579 13.8766C6.97688 13.4622 7.83104 13.3503 8.63247 13.5657C9.43389 13.7811 10.1169 14.306 10.5313 15.025L13.9688 20.9781" stroke="#373737" stroke-width="2.5" stroke-linecap="round" stroke-linejoin="round"/>
<path d="M12.6719 37.6499C10.5487 36.1855 8.78134 34.2633 7.5 32.0249" stroke="#373737" stroke-width="2.5" stroke-linecap="round" stroke-linejoin="round"/>
<path d="M27.5 4.99368C28.9263 4.98982 30.3282 5.36366 31.5632 6.07721C32.7982 6.79076 33.8222 7.81858 34.5312 9.05618" stroke="#373737" stroke-width="2.5" stroke-linecap="round" stroke-linejoin="round"/>
</svg>
