<svg width="81" height="31" viewBox="0 0 81 31" fill="none" xmlns="http://www.w3.org/2000/svg">
<path d="M26.552 8.824C26.552 3.832 23.064 0.599998 17.976 0.599998H0.376V23H6.136V17.016H15.416L19.032 23H25.816L21.688 16.344C24.696 15.16 26.552 12.472 26.552 8.824ZM6.136 5.432H16.376C18.104 5.432 20.792 5.432 20.792 8.824C20.792 12.184 18.104 12.184 16.376 12.184H6.136V5.432ZM48.9975 4.152L41.6375 19.704L33.5735 4.152H27.4935L37.2535 23H40.0695L36.2615 31H42.3095L55.0455 4.152H48.9975ZM66.792 18.872C63.144 18.872 60.264 17.88 59.656 14.872H80.008C80.008 6.296 74.28 3.832 67.112 3.832C59.464 3.832 54.056 6.648 54.056 13.592C54.056 20.504 59.624 23.32 66.792 23.32C73.768 23.32 78.44 21.048 79.688 16.248H74.248C72.872 18.168 70.568 18.872 66.792 18.872ZM67.08 7.992C70.536 7.992 73.224 8.728 74.152 11.384H59.848C60.712 8.728 63.336 7.992 67.08 7.992Z" fill="white"/>
</svg>
