<svg width="52" height="53" viewBox="0 0 52 53" fill="none" xmlns="http://www.w3.org/2000/svg">
<path fill-rule="evenodd" clip-rule="evenodd" d="M1.52284 19.0869C13.4329 30.4974 29.3785 37.4731 46.9009 37.4731C47.6732 37.4731 48.4424 37.4595 49.2083 37.4326C50.6798 34.1024 51.4998 30.4003 51.4998 26.5003C51.4998 11.9476 40.083 0.150269 25.9998 0.150269C14.4075 0.150269 4.62183 8.14337 1.52284 19.0869Z" fill="#373737"/>
<path d="M3.78241 26.5C3.78241 39.3422 13.8302 49.5676 26 49.5676C38.1698 49.5676 48.2176 39.3422 48.2176 26.5C48.2176 13.6579 38.1698 3.43243 26 3.43243C13.8302 3.43243 3.78241 13.6579 3.78241 26.5Z" stroke="#373737" stroke-width="6.56482"/>
</svg>
