<svg width="51" height="54" viewBox="0 0 51 54" fill="none" xmlns="http://www.w3.org/2000/svg">
<path fill-rule="evenodd" clip-rule="evenodd" d="M1.02308 19.5868C12.9332 30.9973 28.8788 37.9729 46.4011 37.9729C47.1734 37.9729 47.9426 37.9594 48.7086 37.9325C50.18 34.6023 51 30.9002 51 27.0001C51 12.4474 39.5833 0.650146 25.5 0.650146C13.9077 0.650146 4.12207 8.64324 1.02308 19.5868Z" fill="white"/>
<path d="M3.28241 26.9999C3.28241 39.8421 13.3302 50.0675 25.5 50.0675C37.6698 50.0675 47.7176 39.8421 47.7176 26.9999C47.7176 14.1577 37.6698 3.93231 25.5 3.93231C13.3302 3.93231 3.28241 14.1577 3.28241 26.9999Z" stroke="white" stroke-width="6.56482"/>
</svg>
