<svg width="32" height="32" viewBox="0 0 32 32" fill="none" xmlns="http://www.w3.org/2000/svg">
<path d="M11.7625 23.0751C10.3375 27.3126 4.6875 27.3125 4.6875 27.3125C4.6875 27.3125 4.6875 21.6625 8.925 20.2375" stroke="black" stroke-width="1.5" stroke-linecap="round" stroke-linejoin="round"/>
<path d="M24.4872 13.1751L15.9997 21.6626L10.3372 16.0001L18.8247 7.5126C22.0372 4.3001 25.2497 4.3376 26.6247 4.5376C26.8369 4.5659 27.0339 4.66325 27.1852 4.8146C27.3366 4.96596 27.4339 5.16292 27.4622 5.3751C27.6622 6.7501 27.6997 9.9626 24.4872 13.1751Z" stroke="black" stroke-width="1.5" stroke-linecap="round" stroke-linejoin="round"/>
<path d="M23.075 14.5874V22.6624C23.0712 22.9262 22.9634 23.1778 22.775 23.3624L18.7375 27.4124C18.6094 27.5403 18.449 27.6311 18.2733 27.675C18.0977 27.7189 17.9134 27.7143 17.7402 27.6617C17.567 27.6091 17.4113 27.5105 17.2897 27.3763C17.1682 27.2421 17.0853 27.0775 17.05 26.8999L16 21.6624" stroke="black" stroke-width="1.5" stroke-linecap="round" stroke-linejoin="round"/>
<path d="M17.4131 8.92505H9.33808C9.07431 8.92881 8.82271 9.03663 8.63808 9.22505L4.58808 13.2625C4.46013 13.3906 4.36936 13.5511 4.32545 13.7267C4.28154 13.9023 4.28614 14.0866 4.33875 14.2598C4.39136 14.4331 4.49001 14.5888 4.62418 14.7103C4.75836 14.8319 4.92301 14.9147 5.10058 14.95L10.3381 16" stroke="black" stroke-width="1.5" stroke-linecap="round" stroke-linejoin="round"/>
</svg>
