<svg width="24" height="24" viewBox="0 0 24 24" fill="none" xmlns="http://www.w3.org/2000/svg">
<path fill-rule="evenodd" clip-rule="evenodd" d="M12 3C9.5556 3 9.2496 3.0102 8.2896 3.054C7.3314 3.0978 6.6768 3.2502 6.1044 3.4728C5.5044 3.6984 4.9602 4.0524 4.5102 4.5108C4.05253 4.96028 3.69831 5.5041 3.4722 6.1044C3.2508 6.6768 3.0978 7.332 3.054 8.2902C3.0108 9.2496 3 9.555 3 12C3 14.445 3.0102 14.7504 3.054 15.7104C3.0978 16.6686 3.2502 17.3232 3.4728 17.8956C3.6984 18.4956 4.0524 19.0398 4.5108 19.4898C4.96029 19.9475 5.50411 20.3017 6.1044 20.5278C6.6768 20.7498 7.3314 20.9022 8.2896 20.946C9.2496 20.9898 9.5556 21 12 21C14.4444 21 14.7504 20.9898 15.7104 20.946C16.6686 20.9022 17.3232 20.7498 17.8956 20.5272C18.4956 20.3016 19.0398 19.9476 19.4898 19.4892C19.9475 19.0397 20.3017 18.4959 20.5278 17.8956C20.7498 17.3232 20.9022 16.6686 20.946 15.7104C20.9898 14.7504 21 14.4444 21 12C21 9.5556 20.9898 9.2496 20.946 8.2896C20.9022 7.3314 20.7498 6.6768 20.5272 6.1044C20.3012 5.50384 19.947 4.95979 19.4892 4.5102C19.0397 4.05253 18.4959 3.69831 17.8956 3.4722C17.3232 3.2508 16.668 3.0978 15.7098 3.054C14.7504 3.0108 14.445 3 12 3ZM12 4.6218C14.403 4.6218 14.688 4.6308 15.6372 4.674C16.5144 4.7142 16.9908 4.86 17.3082 4.9842C17.7282 5.1468 18.0282 5.3424 18.3432 5.6568C18.6582 5.9718 18.8532 6.2718 19.0158 6.6918C19.1394 7.0092 19.2858 7.4856 19.326 8.3628C19.3692 9.312 19.3782 9.597 19.3782 12C19.3782 14.403 19.3692 14.688 19.326 15.6372C19.2858 16.5144 19.14 16.9908 19.0158 17.3082C18.8718 17.6991 18.6419 18.0528 18.3432 18.3432C18.0528 18.642 17.6992 18.8718 17.3082 19.0158C16.9908 19.1394 16.5144 19.2858 15.6372 19.326C14.688 19.3692 14.4036 19.3782 12 19.3782C9.5964 19.3782 9.312 19.3692 8.3628 19.326C7.4856 19.2858 7.0092 19.14 6.6918 19.0158C6.30087 18.8718 5.9472 18.6419 5.6568 18.3432C5.35811 18.0528 5.12828 17.6991 4.9842 17.3082C4.8606 16.9908 4.7142 16.5144 4.674 15.6372C4.6308 14.688 4.6218 14.403 4.6218 12C4.6218 9.597 4.6308 9.312 4.674 8.3628C4.7142 7.4856 4.86 7.0092 4.9842 6.6918C5.1468 6.2718 5.3424 5.9718 5.6568 5.6568C5.94716 5.35803 6.30085 5.12819 6.6918 4.9842C7.0092 4.8606 7.4856 4.7142 8.3628 4.674C9.312 4.6308 9.597 4.6218 12 4.6218Z" fill="black"/>
<path fill-rule="evenodd" clip-rule="evenodd" d="M12 15.003C11.6056 15.003 11.2151 14.9253 10.8508 14.7744C10.4865 14.6235 10.1554 14.4023 9.87656 14.1234C9.5977 13.8446 9.3765 13.5135 9.22559 13.1492C9.07467 12.7849 8.997 12.3944 8.997 12C8.997 11.6056 9.07467 11.2151 9.22559 10.8508C9.3765 10.4865 9.5977 10.1554 9.87656 9.87656C10.1554 9.59771 10.4865 9.37651 10.8508 9.22559C11.2151 9.07468 11.6056 8.997 12 8.997C12.7964 8.997 13.5603 9.31339 14.1234 9.87656C14.6866 10.4397 15.003 11.2036 15.003 12C15.003 12.7964 14.6866 13.5603 14.1234 14.1234C13.5603 14.6866 12.7964 15.003 12 15.003ZM12 7.374C10.7731 7.374 9.59647 7.86138 8.72892 8.72893C7.86138 9.59647 7.374 10.7731 7.374 12C7.374 13.2269 7.86138 14.4035 8.72892 15.2711C9.59647 16.1386 10.7731 16.626 12 16.626C13.2269 16.626 14.4035 16.1386 15.2711 15.2711C16.1386 14.4035 16.626 13.2269 16.626 12C16.626 10.7731 16.1386 9.59647 15.2711 8.72893C14.4035 7.86138 13.2269 7.374 12 7.374ZM17.9718 7.29C17.9718 7.58002 17.8566 7.85815 17.6515 8.06322C17.4464 8.2683 17.1683 8.3835 16.8783 8.3835C16.5883 8.3835 16.3101 8.2683 16.1051 8.06322C15.9 7.85815 15.7848 7.58002 15.7848 7.29C15.7848 6.99999 15.9 6.72185 16.1051 6.51678C16.3101 6.31171 16.5883 6.1965 16.8783 6.1965C17.1683 6.1965 17.4464 6.31171 17.6515 6.51678C17.8566 6.72185 17.9718 6.99999 17.9718 7.29Z" fill="black"/>
</svg>
