<svg width="20" height="20" viewBox="0 0 20 20" fill="none" xmlns="http://www.w3.org/2000/svg">
<path d="M19.9277 14.5581C19.7898 14.1802 19.5242 13.9759 19.2229 13.8125C19.1667 13.7818 19.1157 13.7512 19.0697 13.7308C18.9778 13.6848 18.8858 13.6388 18.7939 13.5929C17.8542 13.0924 17.1188 12.4693 16.6131 11.7237C16.4701 11.5143 16.3425 11.2895 16.2403 11.0597C16.1944 10.9372 16.1995 10.8657 16.2301 10.7993C16.2608 10.7482 16.3016 10.7073 16.3527 10.6716C16.5161 10.5643 16.6795 10.4571 16.7919 10.3856C16.9911 10.2528 17.1545 10.1507 17.2567 10.0792C17.6397 9.80847 17.9104 9.52247 18.0789 9.20072C18.3189 8.75129 18.3496 8.22525 18.1657 7.75029C17.9104 7.07614 17.2771 6.66246 16.5059 6.66246C16.3425 6.66246 16.1841 6.67778 16.0207 6.71353C15.9799 6.72375 15.9339 6.73396 15.893 6.74418C15.8981 6.28453 15.8879 5.79935 15.8471 5.31928C15.7041 3.63903 15.1116 2.7606 14.4988 2.06091C14.1055 1.6217 13.6459 1.24888 13.1301 0.957769C12.2006 0.426624 11.1434 0.155945 9.99427 0.155945C8.84516 0.155945 7.79309 0.426624 6.86359 0.957769C6.34776 1.24888 5.88812 1.6217 5.49487 2.06091C4.88201 2.7606 4.29469 3.64413 4.14658 5.31928C4.10572 5.79935 4.09551 6.28453 4.10061 6.74418C4.05976 6.73396 4.0189 6.72375 3.97294 6.71353C3.81461 6.67778 3.65119 6.66246 3.49286 6.66246C2.72168 6.66246 2.0884 7.08125 1.83304 7.75029C1.64918 8.22525 1.67982 8.75129 1.91986 9.20072C2.0884 9.52247 2.35907 9.80847 2.74211 10.0792C2.84425 10.1507 3.00258 10.2528 3.20686 10.3856C3.31411 10.4571 3.47243 10.5592 3.63076 10.6614C3.68694 10.6971 3.7329 10.7431 3.76865 10.7993C3.79929 10.8657 3.8044 10.9372 3.75333 11.0699C3.65119 11.2947 3.52861 11.5143 3.38561 11.7185C2.89022 12.4438 2.17522 13.0617 1.26614 13.5571C0.78607 13.8125 0.285569 13.981 0.0710683 14.5581C-0.0872535 14.9922 0.0148896 15.4825 0.418355 15.9013C0.566463 16.0545 0.740106 16.1873 0.929071 16.2895C1.32232 16.504 1.74111 16.6725 2.18032 16.79C2.27225 16.8155 2.35397 16.8512 2.43057 16.9023C2.57868 17.03 2.55825 17.2241 2.75233 17.5101C2.84936 17.6582 2.97704 17.7859 3.12004 17.888C3.53372 18.174 3.99847 18.1893 4.48876 18.2097C4.93308 18.2251 5.43358 18.2455 6.01069 18.4345C6.25073 18.5111 6.49587 18.6643 6.78187 18.843C7.47134 19.2669 8.41106 19.844 9.98917 19.844C11.5673 19.844 12.5121 19.2618 13.2067 18.8379C13.4927 18.6643 13.7378 18.5111 13.9676 18.4345C14.5396 18.2455 15.0453 18.2251 15.4896 18.2097C15.9799 18.1893 16.4446 18.174 16.8583 17.888C17.0319 17.7654 17.1749 17.6122 17.2771 17.4284C17.4201 17.1883 17.415 17.0198 17.5478 16.9023C17.6193 16.8512 17.701 16.8155 17.7827 16.7951C18.2219 16.6776 18.6509 16.5091 19.0493 16.2895C19.2484 16.1822 19.4323 16.0392 19.5855 15.8707L19.5906 15.8656C19.989 15.457 20.086 14.9769 19.9277 14.5581ZM18.5283 15.3089C17.6754 15.7787 17.1034 15.7277 16.6642 16.0137C16.2863 16.2537 16.511 16.7746 16.2403 16.9636C15.9033 17.1934 14.9125 16.9483 13.6357 17.3722C12.5785 17.7195 11.9095 18.7256 10.0096 18.7256C8.10973 18.7256 7.45602 17.7246 6.38351 17.3722C5.10673 16.9483 4.11594 17.1985 3.77886 16.9636C3.50819 16.7746 3.72779 16.2537 3.35497 16.0137C2.91065 15.7277 2.34375 15.7787 1.49086 15.3089C0.944392 15.0076 1.25593 14.8237 1.43468 14.7369C4.52962 13.2405 5.02501 10.9269 5.04544 10.7533C5.07097 10.5439 5.10162 10.3805 4.8718 10.1711C4.65219 9.96679 3.67161 9.35904 3.39583 9.17008C2.9464 8.85343 2.74722 8.5419 2.89533 8.15375C2.99747 7.88818 3.24772 7.78604 3.50818 7.78604C3.5899 7.78604 3.67161 7.79625 3.75333 7.81157C4.24872 7.91882 4.7288 8.16397 5.00458 8.23547C5.04033 8.24568 5.07098 8.25079 5.10673 8.25079C5.25483 8.25079 5.3059 8.17418 5.29569 8.00565C5.26505 7.46429 5.18844 6.41221 5.27526 5.42653C5.39273 4.07313 5.82683 3.39899 6.34776 2.80656C6.59801 2.52056 7.76755 1.28463 10.0096 1.28463C12.2516 1.28463 13.4212 2.51545 13.6714 2.80145C14.1924 3.39388 14.6265 4.06803 14.7439 5.42142C14.8308 6.4071 14.7541 7.45918 14.7184 8.00054C14.7082 8.17929 14.7593 8.24568 14.9074 8.24568C14.9431 8.24568 14.9738 8.24057 15.0095 8.23036C15.2853 8.16397 15.7654 7.91372 16.2608 7.80647C16.3425 7.78604 16.4242 7.78093 16.5059 7.78093C16.7664 7.78093 17.0166 7.88307 17.1188 8.14865C17.2669 8.53679 17.0677 8.84833 16.6183 9.16497C16.3476 9.35394 15.367 9.96169 15.1423 10.166C14.9125 10.3754 14.9431 10.5388 14.9686 10.7482C14.9891 10.9218 15.4845 13.2354 18.5794 14.7318C18.7633 14.8186 19.0697 15.0076 18.5283 15.3089Z" fill="black"/>
</svg>
