<svg width="18" height="20" viewBox="0 0 18 20" fill="none" xmlns="http://www.w3.org/2000/svg">
<path d="M15.1155 4.00894C14.0382 3.30651 13.2606 2.18262 13.0181 0.872464C12.9657 0.589395 12.9369 0.298072 12.9369 0H9.49847L9.49296 13.78C9.43515 15.3231 8.16511 16.5616 6.60815 16.5616C6.12424 16.5616 5.66859 16.4406 5.2674 16.2295C4.34741 15.7454 3.71782 14.781 3.71782 13.6713C3.71782 12.0775 5.01448 10.7808 6.60815 10.7808C6.90564 10.7808 7.19103 10.8299 7.46098 10.9145V7.40424C7.18161 7.3662 6.89776 7.34242 6.60815 7.34242C3.11841 7.34242 0.279408 10.1816 0.279408 13.6713C0.279408 15.8124 1.34916 17.7072 2.98119 18.853C4.00917 19.5747 5.25959 20 6.60815 20C10.0979 20 12.9369 17.161 12.9369 13.6713V6.68367C14.2855 7.65161 15.9377 8.222 17.7206 8.222V4.7836C16.7602 4.7836 15.8657 4.49808 15.1155 4.00894Z" fill="black"/>
</svg>
